<svg width="135" height="76" viewBox="0 0 135 76" fill="none" xmlns="http://www.w3.org/2000/svg">
<path d="M67.8745 0.400024C78.667 0.400024 88.3981 4.91698 95.2592 12.1528L98.6588 8.90034H107.21L112.768 13.1505L102.494 23.1273C104.429 27.6328 105.5 32.5928 105.5 37.8014C105.5 58.4576 88.6544 75.2028 67.8745 75.2028C57.4701 75.2028 48.052 71.0048 41.2409 64.2199L37.0901 67.9776H28.9665L24.2633 62.8774L33.7446 53.5656C31.5016 48.7751 30.2492 43.4337 30.2492 37.8014C30.2492 17.1452 47.0946 0.400024 67.8745 0.400024ZM90.7324 34.5469L75.9981 48.8518H70.8674L66.5918 46.3017H61.0335L52.0069 54.4733C56.144 58.3654 61.7288 60.7523 67.8745 60.7523C80.6258 60.7523 90.9627 50.4768 90.9627 37.8014C90.9627 36.6966 90.8842 35.6101 90.7324 34.5469ZM17.4908 18.3087C17.9696 17.9007 18.7906 18.3087 18.7906 18.9207V23.6809C18.7906 24.7689 18.2433 25.857 17.4908 26.537L6.75045 36.2613L17.4224 45.9857C18.2433 46.6657 18.7906 47.7538 18.7906 48.8418V53.602C18.7906 54.214 17.9696 54.622 17.4908 54.214L1.61973 39.8655C0.867224 39.2535 0.319946 38.0974 0.319946 37.0774V35.5133C0.319946 34.4933 0.867224 33.3372 1.61973 32.6572L17.4908 18.3087ZM116.114 18.9207C116.114 18.3087 116.935 17.9007 117.414 18.3087L133.285 32.6572C134.037 33.3372 134.585 34.4933 134.585 35.5133V37.0774C134.585 38.0974 134.037 39.2535 133.285 39.8655L117.414 54.214C116.935 54.622 116.114 54.214 116.114 53.602V48.8418C116.114 47.7538 116.661 46.6657 117.482 45.9857L128.154 36.2613L117.414 26.537C116.661 25.857 116.114 24.7689 116.114 23.6809V18.9207ZM67.8745 14.8506C55.1232 14.8506 44.7862 25.126 44.7862 37.8014C44.7862 39.3371 44.938 40.8376 45.2274 42.2889L59.7508 28.0261H66.5918L70.8674 30.5762H75.9981L84.7825 22.1727C80.567 17.6682 74.5518 14.8506 67.8745 14.8506Z" fill="white"/>
</svg>
